<?xml version="1.0" encoding="UTF-8"?>
<svg xmlns="http://www.w3.org/2000/svg" version="1.2" baseProfile="tiny-ps" viewBox="0 0 96 96">
  <title>career-ops</title>
  <rect width="96" height="96" rx="14" fill="#D5742E"/>
  <g transform="translate(18.367 64) scale(0.07800 -0.07800)"><path d="M180 -9Q136 -9 100.5 20.5Q65 50 44.0 105.0Q23 160 23 236Q23 321 48.5 384.0Q74 447 118.0 481.5Q162 516 216 516Q262 516 288 498Q298 491 298 476L300 354Q300 339 288 339Q277 339 274 352Q260 407 247.0 437.0Q234 467 220.0 478.5Q206 490 189 490Q169 490 147.5 467.0Q126 444 111.5 392.5Q97 341 97 257Q97 150 124.5 96.0Q152 42 196 42Q231 42 254.5 71.0Q278 100 295 176Q298 187 307 187Q319 187 316 167Q305 97 285.5 58.5Q266 20 239.5 5.5Q213 -9 180 -9Z" fill="#FFFFFF"/></g>
  <g transform="translate(45.809 64) scale(0.07800 -0.07800)"><path d="M203 -9Q152 -9 111.5 25.5Q71 60 47.0 120.0Q23 180 23 254Q23 328 47.0 387.0Q71 446 112.0 481.0Q153 516 203 516Q254 516 294.5 481.0Q335 446 359.0 387.0Q383 328 383 254Q383 180 359.5 120.0Q336 60 295.0 25.5Q254 -9 203 -9ZM203 16Q307 16 307 254Q307 491 203 491Q99 491 99 254Q99 16 203 16Z" fill="#FFFFFF"/></g>
</svg>
